<svg xmlns="http://www.w3.org/2000/svg" viewBox="0 0 153.33 40"><defs><style>.cls-1{fill:#fff;}.cls-2{fill:#00afe8;}.cls-3{fill:#005baa;}.cls-4{fill:#ee2e24;}.cls-5{fill:#00ae9d;}</style></defs><g id="Layer_1" data-name="Layer 1"><path class="cls-1" d="M59.39,30.77c-3.26,0-5.73-.95-7.43-2.86s-2.54-4.63-2.54-8.19.89-6.41,2.66-8.36,4.33-2.92,7.69-2.92A14.3,14.3,0,0,1,65.9,9.71l-1.38,3.68a14,14,0,0,0-4.79-1.13q-5.59,0-5.6,7.42a8.9,8.9,0,0,0,1.4,5.45A4.83,4.83,0,0,0,59.61,27a11.76,11.76,0,0,0,5.79-1.52v4a9.26,9.26,0,0,1-2.62,1A16.33,16.33,0,0,1,59.39,30.77Z" transform="translate(-0.23 0)"/><path class="cls-1" d="M83.65,30.38,83,27.55h-.24a6.46,6.46,0,0,1-2.71,2.36,9.14,9.14,0,0,1-4,.86q-3.91,0-5.84-1.95t-1.93-5.9V8.83h4.62V22.12a5.74,5.74,0,0,0,1,3.71,3.87,3.87,0,0,0,3.18,1.24,5,5,0,0,0,4.23-1.73c.91-1.15,1.36-3.07,1.36-5.78V8.83h4.59V30.38Z" transform="translate(-0.23 0)"/><path class="cls-1" d="M102.77,8.44a7.48,7.48,0,0,1,6.28,2.92q2.25,2.93,2.25,8.2T109,27.81a8.28,8.28,0,0,1-12.68,0H96l-.83,2.56H91.76V.06h4.58V7.27c0,.53,0,1.33-.08,2.38s-.09,1.72-.12,2h.2A7.26,7.26,0,0,1,102.77,8.44Zm-1.19,3.74a4.64,4.64,0,0,0-4,1.63c-.81,1.08-1.23,2.9-1.25,5.44v.31q0,3.95,1.24,5.7A4.64,4.64,0,0,0,101.66,27a4.14,4.14,0,0,0,3.69-1.93,10.33,10.33,0,0,0,1.25-5.57Q106.6,12.18,101.58,12.18Z" transform="translate(-0.23 0)"/><path class="cls-1" d="M111.21,8.83h5l4.38,12.22a23.89,23.89,0,0,1,1.33,4.9h.15a21.47,21.47,0,0,1,.64-2.6q.48-1.53,5-14.52h4.95l-9.21,24.41Q120.87,40,115,40a13.23,13.23,0,0,1-3-.33V36a11.07,11.07,0,0,0,2.35.23c2.21,0,3.77-1.28,4.66-3.84l.8-2Z" transform="translate(-0.23 0)"/><path class="cls-1" d="M143.71,27.07a11.16,11.16,0,0,0,3.35-.53V30a9.42,9.42,0,0,1-2,.55,13.38,13.38,0,0,1-2.48.23q-6.51,0-6.51-6.86V12.3h-2.94v-2l3.16-1.67L137.88,4h2.83V8.83h6.14V12.3h-6.14V23.83a3.27,3.27,0,0,0,.83,2.45A3,3,0,0,0,143.71,27.07Z" transform="translate(-0.23 0)"/><path class="cls-1" d="M149.64,11.55h-.34V9.16h-.84v-.3h2v.3h-.83Z" transform="translate(-0.23 0)"/><path class="cls-1" d="M152.06,11.55l-.88-2.35h0a2.28,2.28,0,0,1,0,.31c0,.13,0,.27,0,.41v1.63h-.31V8.86h.5l.83,2.21h0l.84-2.21h.5v2.69h-.33v-2c0-.13,0-.23,0-.31h0l-.9,2.35Z" transform="translate(-0.23 0)"/><path class="cls-2" d="M21.3,18.74C14.73,19.39,34.14,1,40.23,5.06V32.65S33.67,17.52,21.3,18.74Z" transform="translate(-0.23 0)"/><path class="cls-3" d="M19.16,21.22C25.73,20.57,6.32,38.93.23,34.9V7.31S6.8,22.44,19.16,21.22Z" transform="translate(-0.23 0)"/><path class="cls-4" d="M21.42,21.07C20.77,14.5,39.13,33.91,35.09,40H7.51S22.64,33.44,21.42,21.07Z" transform="translate(-0.23 0)"/><path class="cls-5" d="M18.94,18.93C19.58,25.5,1.23,6.09,5.26,0H32.84S17.72,6.56,18.94,18.93Z" transform="translate(-0.23 0)"/></g></svg>